<?xml version="1.0" encoding="UTF-8" standalone="no"?>
<!-- Created with Inkscape (http://www.inkscape.org/) -->

<svg
   width="128"
   height="128"
   viewBox="0 0 33.866666 33.866666"
   version="1.1"
   id="svg5"
   inkscape:version="1.2.2 (b0a8486541, 2022-12-01)"
   sodipodi:docname="icon.svg"
   inkscape:export-filename="icon.png"
   inkscape:export-xdpi="96"
   inkscape:export-ydpi="96"
   xmlns:inkscape="http://www.inkscape.org/namespaces/inkscape"
   xmlns:sodipodi="http://sodipodi.sourceforge.net/DTD/sodipodi-0.dtd"
   xmlns="http://www.w3.org/2000/svg"
   xmlns:svg="http://www.w3.org/2000/svg">
  <sodipodi:namedview
     id="namedview7"
     pagecolor="#000000"
     bordercolor="#ffffff"
     borderopacity="1"
     inkscape:showpageshadow="0"
     inkscape:pageopacity="1"
     inkscape:pagecheckerboard="1"
     inkscape:deskcolor="#505050"
     inkscape:document-units="px"
     showgrid="false"
     inkscape:zoom="4.7572176"
     inkscape:cx="109.6229"
     inkscape:cy="62.431452"
     inkscape:window-width="1920"
     inkscape:window-height="1011"
     inkscape:window-x="0"
     inkscape:window-y="32"
     inkscape:window-maximized="1"
     inkscape:current-layer="layer1"
     showborder="false" />
  <defs
     id="defs2" />
  <g
     inkscape:label="Layer 1"
     inkscape:groupmode="layer"
     id="layer1">
    <g
       id="g1742"
       transform="translate(0,-0.26458339)">
      <g
         aria-label=""
         transform="rotate(45,-0.25371554,-0.17195128)"
         id="text952"
         style="font-size:16.9333px;line-height:125%;font-family:Sans;letter-spacing:0px;word-spacing:0px;fill:#ff6060;stroke-width:0.265">
        <path
           d="m 19.642628,3.6406598 q 0,0.4741324 -0.220133,1.0329313 -0.2032,0.5418656 -0.541866,0.8805316 L 18.67743,5.7742556 q -0.1016,0.1185331 -0.2032,0.3555993 -0.1016,0.2370662 -0.1016,0.3894659 v 0.6265321 q 0,0.4063992 -0.406399,0.7111986 -0.186266,0.1354664 -0.440266,0.2201329 -0.237066,0.084666 -0.491065,0.084666 h -4.961457 q -0.541866,0 -0.948265,-0.3217327 Q 10.735712,7.5353188 10.735712,7.1289196 V 6.5193208 q 0,-0.1185331 -0.1016,-0.2878661 Q 10.532513,6.0451884 10.447846,5.9774552 L 9.1270486,5.0122571 Q 8.7037161,4.7074577 8.4327833,4.1655921 8.1618505,3.6067932 8.1618505,3.0987942 V 1.1006648 q 0,-0.50799898 0.2709328,-1.04986458 0.2709328,-0.5587989 0.6942653,-0.8635983 L 9.8213139,-1.3038638 v -4.8767904 q 0,-0.4063992 0.1523997,-0.7619985 0.1523994,-0.3725326 0.4233324,-0.6434654 0.270933,-0.2709328 0.609599,-0.4233325 0.355599,-0.1523997 0.761998,-0.1523997 0.4064,0 0.761999,0.1523997 0.355599,0.1523997 0.626532,0.4233325 0.270933,0.2709328 0.423333,0.6434654 0.152399,0.3555993 0.152399,0.7619985 v 2.8278611 q 0.01693,-0.016933 0.06773,-0.016933 h 0.135467 q 0.406399,0 0.778932,0.169333 0.372532,0.1523997 0.643465,0.4402658 0.355599,-0.1354664 0.643465,-0.1354664 0.4064,0 0.761999,0.1862663 0.372533,0.169333 0.626532,0.4741324 0.118533,-0.033867 0.237066,-0.067733 0.118533,-0.033867 0.237066,-0.033867 0.372533,0 0.694266,0.1523997 0.321732,0.1523997 0.558799,0.4063992 0.253999,0.2539995 0.389466,0.6095988 0.135466,0.33866602 0.135466,0.74506522 z M 18.47423,-0.67733168 q 0,-0.2539995 -0.203199,-0.37253262 -0.186267,-0.1354664 -0.3556,-0.1354664 -0.152399,0 -0.372532,0.1185331 -0.2032,0.11853312 -0.2032,0.35559932 v 0.3047994 H 16.662367 V -1.202264 q 0,-0.2370662 -0.220133,-0.3894659 -0.203199,-0.1523997 -0.440266,-0.1523997 -0.220132,0 -0.406399,0.1354664 -0.186266,0.1354664 -0.186266,0.3725326 v 0.82973172 H 14.698104 V -1.6425298 q 0,-0.2031996 -0.237066,-0.3894659 -0.237066,-0.1862663 -0.524932,-0.1862663 -0.2032,0 -0.440266,0.1862663 -0.220133,0.169333 -0.220133,0.3725326 v 1.25306422 H 12.564509 V -6.1806542 q 0,-0.338666 -0.237067,-0.5757322 -0.220133,-0.2539995 -0.558799,-0.2539995 -0.338666,0 -0.575732,0.2539995 -0.220133,0.2370662 -0.220133,0.5757322 V 1.6425304 H 10.10918 V -0.08466618 L 9.8213139,0.11853342 Q 9.6181143,0.27093312 9.4657146,0.57573252 9.3133149,0.86359862 9.3133149,1.1006648 v 1.9981294 q 0,0.2370662 0.1523997,0.5418656 0.1523997,0.3047994 0.3555993,0.4402658 l 1.3207971,0.9651981 q 0.321733,0.2370662 0.524933,0.6603987 0.220133,0.4233325 0.220133,0.8127984 v 0.2709328 q 0,0.0508 0.06773,0.1015998 0.06773,0.067733 0.152399,0.067733 h 4.893724 q 0.08467,0 0.1524,-0.067733 0.06773,-0.0508 0.06773,-0.084666 V 6.5362541 q 0,-0.3725326 0.169333,-0.8127984 0.169333,-0.4402658 0.440266,-0.7281319 l 0.203199,-0.2201329 q 0.186267,-0.1862663 0.3048,-0.5249323 0.135466,-0.338666 0.135466,-0.6095988 z M 14.122372,5.8250555 V 2.4553288 l -0.812798,0.338666 -0.220133,-0.6942653 q 0.846665,-0.2878661 1.134531,-0.8974649 h 0.795865 v 4.6227909 z"
           style="font-family:nintendo_NTLG-DB_002;-inkscape-font-specification:'nintendo_NTLG-DB_002, Normal'"
           id="path1722" />
      </g>
      <g
         aria-label=""
         transform="rotate(-45,-3.7057235,-0.50241749)"
         id="text956"
         style="font-size:16.9333px;line-height:125%;font-family:Sans;letter-spacing:0px;word-spacing:0px;fill:#60ff60;stroke-width:0.264583px">
        <path
           d="m 15.785499,27.58801 q 0,0.474132 -0.220133,1.032931 -0.203199,0.541866 -0.541865,0.880532 l -0.2032,0.220133 q -0.1016,0.118533 -0.2032,0.355599 -0.101599,0.237066 -0.101599,0.389466 v 0.626532 q 0,0.406399 -0.4064,0.711199 -0.186266,0.135466 -0.440265,0.220132 -0.237067,0.08467 -0.491066,0.08467 H 8.2163141 q -0.5418656,0 -0.9482648,-0.321733 Q 6.8785834,31.482669 6.8785834,31.07627 v -0.609599 q 0,-0.118533 -0.1015998,-0.287866 -0.1015998,-0.186267 -0.1862663,-0.254 L 5.2699199,28.959607 Q 4.8465874,28.654808 4.5756546,28.112942 4.3047218,27.554143 4.3047218,27.046144 v -1.998129 q 0,-0.507999 0.2709328,-1.049865 0.2709328,-0.558799 0.6942653,-0.863598 l 0.6942653,-0.491066 v -4.87679 q 0,-0.406399 0.1523997,-0.761999 0.1523997,-0.372532 0.4233325,-0.643465 0.2709328,-0.270933 0.6095988,-0.423333 0.3555993,-0.152399 0.7619985,-0.152399 0.4063992,0 0.7619985,0.152399 0.3555993,0.1524 0.6265321,0.423333 0.2709328,0.270933 0.4233325,0.643465 0.1523997,0.3556 0.1523997,0.761999 v 2.827861 q 0.016933,-0.01693 0.067733,-0.01693 h 0.1354665 q 0.406399,0 0.778932,0.169333 0.372532,0.152399 0.643465,0.440265 0.3556,-0.135466 0.643466,-0.135466 0.406399,0 0.761998,0.186266 0.372533,0.169333 0.626532,0.474133 0.118533,-0.03387 0.237066,-0.06773 0.118534,-0.03387 0.237067,-0.03387 0.372532,0 0.694265,0.1524 0.321733,0.152399 0.558799,0.406399 0.253999,0.253999 0.389466,0.609599 0.135466,0.338666 0.135466,0.745065 z m -1.168398,-4.317992 q 0,-0.253999 -0.203199,-0.372532 -0.186266,-0.135467 -0.355599,-0.135467 -0.1524,0 -0.372533,0.118533 -0.2032,0.118534 -0.2032,0.3556 v 0.304799 h -0.677332 v -0.795865 q 0,-0.237066 -0.220133,-0.389466 -0.203199,-0.1524 -0.440265,-0.1524 -0.220133,0 -0.4064,0.135467 -0.186266,0.135466 -0.186266,0.372532 v 0.829732 H 10.840976 V 22.30482 q 0,-0.203199 -0.237067,-0.389466 -0.237066,-0.186266 -0.524932,-0.186266 -0.2031995,0 -0.4402657,0.186266 -0.2201329,0.169333 -0.2201329,0.372533 v 1.253064 H 8.7073798 v -5.774255 q 0,-0.338666 -0.2370662,-0.575732 -0.2201329,-0.254 -0.5587989,-0.254 -0.338666,0 -0.5757322,0.254 -0.2201329,0.237066 -0.2201329,0.575732 V 25.58988 H 6.2520513 v -1.727196 l -0.2878661,0.203199 q -0.2031996,0.1524 -0.3555993,0.4572 -0.1523997,0.287866 -0.1523997,0.524932 v 1.998129 q 0,0.237066 0.1523997,0.541866 0.1523997,0.304799 0.3555993,0.440266 l 1.3207974,0.965198 q 0.3217327,0.237066 0.5249323,0.660398 0.2201329,0.423333 0.2201329,0.812799 v 0.270933 q 0,0.0508 0.067733,0.101599 0.067733,0.06773 0.1523997,0.06773 h 4.8937235 q 0.08467,0 0.1524,-0.06773 0.06773,-0.0508 0.06773,-0.08467 V 30.4836 q 0,-0.372532 0.169333,-0.812798 0.169333,-0.440266 0.440266,-0.728132 l 0.2032,-0.220133 q 0.186266,-0.186266 0.304799,-0.524932 0.135466,-0.338666 0.135466,-0.609599 z m -4.013192,1.69333 q 0.609599,0 1.083732,0.321733 0.474132,0.321733 0.474132,0.999065 0,0.406399 -0.220133,0.728132 -0.2032,0.321732 -0.507999,0.626532 -0.304799,0.287866 -0.626532,0.609599 -0.321733,0.304799 -0.524932,0.677332 h 1.947329 v 0.711198 H 9.113779 q 0,-0.01693 -0.016933,-0.03387 0,-0.03387 0,-0.0508 0,-0.135467 0.1015998,-0.389466 0.1185331,-0.270933 0.2031996,-0.406399 0.2370662,-0.389466 0.5587989,-0.761999 0.3386657,-0.372533 0.6773317,-0.694265 0.220133,-0.186267 0.474132,-0.423333 0.254,-0.237066 0.254,-0.575732 0,-0.355599 -0.237066,-0.491066 -0.237067,-0.152399 -0.558799,-0.152399 -0.423333,0 -0.6095987,0.304799 -0.169333,0.287866 -0.2031996,0.660399 L 9.0291125,26.453479 q 0.033867,-0.694266 0.4571991,-1.083731 0.4402658,-0.4064 1.1175974,-0.4064 z"
           style="font-family:nintendo_NTLG-DB_002;-inkscape-font-specification:'nintendo_NTLG-DB_002, Normal'"
           id="path1725" />
      </g>
      <g
         aria-label=""
         transform="rotate(-45,0.93975115,0.20676593)"
         id="text960"
         style="font-size:16.9333px;line-height:125%;font-family:Sans;letter-spacing:0px;word-spacing:0px;fill:#6060ff;stroke-width:0.264583px">
        <path
           d="m -4.3047211,27.588008 q 0,0.474132 -0.2201329,1.032931 -0.2031996,0.541866 -0.5418656,0.880532 l -0.2031996,0.220133 q -0.1015998,0.118533 -0.2031996,0.355599 -0.1015998,0.237066 -0.1015998,0.389466 v 0.626532 q 0,0.406399 -0.4063992,0.711199 -0.1862663,0.135466 -0.4402658,0.220133 -0.2370662,0.08467 -0.4910657,0.08467 h -4.9614567 q -0.541866,0 -0.948265,-0.321733 -0.389466,-0.304799 -0.389466,-0.711198 v -0.609599 q 0,-0.118533 -0.1016,-0.287866 -0.1016,-0.186266 -0.186266,-0.254 L -14.8203,28.959605 q -0.423333,-0.304799 -0.694266,-0.846665 -0.270933,-0.558799 -0.270933,-1.066798 v -1.998129 q 0,-0.507999 0.270933,-1.049865 0.270933,-0.558799 0.694266,-0.863598 l 0.694265,-0.491066 v -4.87679 q 0,-0.406399 0.1524,-0.761999 0.152399,-0.372532 0.423332,-0.643465 0.270933,-0.270933 0.609599,-0.423332 0.355599,-0.1524 0.761998,-0.1524 0.4064,0 0.761999,0.1524 0.355599,0.152399 0.626532,0.423332 0.270933,0.270933 0.423332,0.643465 0.1524,0.3556 0.1524,0.761999 v 2.827861 q 0.01693,-0.01693 0.06773,-0.01693 h 0.135467 q 0.4063989,0 0.7789315,0.169333 0.3725326,0.152399 0.6434654,0.440266 0.3555994,-0.135467 0.6434655,-0.135467 0.4063992,0 0.7619985,0.186266 0.3725326,0.169333 0.6265321,0.474133 0.1185331,-0.03387 0.2370662,-0.06773 0.1185331,-0.03387 0.2370662,-0.03387 0.3725326,0 0.6942653,0.1524 0.3217327,0.152399 0.5587989,0.406399 0.2539995,0.253999 0.3894659,0.609599 0.1354664,0.338666 0.1354664,0.745065 z m -1.1683977,-4.317992 q 0,-0.253999 -0.2031996,-0.372532 -0.1862663,-0.135467 -0.3555993,-0.135467 -0.1523997,0 -0.3725326,0.118534 -0.2031996,0.118533 -0.2031996,0.355599 v 0.304799 h -0.677332 v -0.795865 q 0,-0.237066 -0.2201329,-0.389466 -0.2031996,-0.152399 -0.4402658,-0.152399 -0.2201329,0 -0.4063993,0.135466 -0.1862663,0.135466 -0.1862663,0.372533 v 0.829731 h -0.7111986 v -1.236131 q 0,-0.203199 -0.2370662,-0.389466 -0.2370662,-0.186266 -0.524932,-0.186266 -0.2032,0 -0.440266,0.186266 -0.220133,0.169333 -0.220133,0.372533 v 1.253064 h -0.711199 v -5.774255 q 0,-0.338666 -0.237066,-0.575732 -0.220133,-0.254 -0.558799,-0.254 -0.338666,0 -0.575732,0.254 -0.220133,0.237066 -0.220133,0.575732 v 7.823185 h -0.863598 v -1.727197 l -0.287866,0.2032 q -0.2032,0.152399 -0.355599,0.457199 -0.1524,0.287866 -0.1524,0.524932 v 1.998129 q 0,0.237067 0.1524,0.541866 0.152399,0.304799 0.355599,0.440266 l 1.320797,0.965198 q 0.321733,0.237066 0.524933,0.660399 0.220132,0.423332 0.220132,0.812798 v 0.270933 q 0,0.0508 0.06773,0.1016 0.06773,0.06773 0.152399,0.06773 h 4.8937241 q 0.084666,0 0.1523997,-0.06773 0.067733,-0.0508 0.067733,-0.08467 v -0.270933 q 0,-0.372532 0.169333,-0.812798 0.169333,-0.440266 0.4402658,-0.728132 l 0.2031996,-0.220133 q 0.1862663,-0.186266 0.3047994,-0.524932 0.1354664,-0.338666 0.1354664,-0.609599 z m -4.0809254,6.485454 q -0.7111988,0 -1.1345308,-0.287866 -0.423333,-0.304799 -0.575732,-0.812798 l 0.761998,-0.321733 q 0.08467,0.338666 0.338666,0.524932 0.2539995,0.169333 0.5926655,0.169333 0.3725326,0 0.6265321,-0.186266 0.2709328,-0.186266 0.2709328,-0.507999 0,-0.728132 -0.9313315,-0.728132 h -0.5757319 v -0.745065 h 0.5079987 q 0.338666,0 0.5926655,-0.169333 0.2539995,-0.186266 0.2539995,-0.474132 0,-0.287866 -0.2031996,-0.440266 -0.1862663,-0.1524 -0.4910657,-0.1524 -0.338666,0 -0.5587984,0.186266 -0.2032,0.169333 -0.237067,0.423333 l -0.761998,-0.237066 q 0.1016,-0.440266 0.474132,-0.761999 0.389466,-0.321732 1.117598,-0.321732 0.7111986,0 1.1175978,0.321732 0.4063993,0.321733 0.4063993,0.863599 0,0.440265 -0.2370662,0.711198 -0.220133,0.270933 -0.6095989,0.355599 0.3894659,0.06773 0.6942654,0.372533 0.3047994,0.287866 0.3047994,0.829732 0,0.643465 -0.4402658,1.015998 -0.4233326,0.372532 -1.3038642,0.372532 z"
           style="font-family:nintendo_NTLG-DB_002;-inkscape-font-specification:'nintendo_NTLG-DB_002, Normal'"
           id="path1728" />
      </g>
      <g
         aria-label=""
         transform="rotate(45,1.6263179,3.2401868)"
         id="text964"
         style="font-size:16.9333px;line-height:125%;font-family:Sans;letter-spacing:0px;word-spacing:0px;fill:#ffff40;stroke-width:0.264583px">
        <path
           d="m 39.73285,3.6406593 q 0,0.4741324 -0.220133,1.0329313 -0.2032,0.5418656 -0.541866,0.8805316 l -0.203199,0.2201329 q -0.1016,0.1185331 -0.2032,0.3555993 -0.1016,0.2370662 -0.1016,0.3894659 v 0.6265321 q 0,0.4063992 -0.406399,0.7111986 -0.186266,0.1354664 -0.440266,0.2201329 -0.237066,0.084667 -0.491065,0.084667 h -4.961457 q -0.541866,0 -0.948265,-0.3217327 Q 30.825934,7.5353183 30.825934,7.1289191 V 6.5193203 q 0,-0.1185331 -0.1016,-0.2878661 -0.1016,-0.1862663 -0.186266,-0.2539995 L 29.21727,5.0122566 Q 28.793938,4.7074572 28.523005,4.1655916 28.252072,3.6067927 28.252072,3.0987937 V 1.1006643 q 0,-0.50799896 0.270933,-1.04986456 0.270933,-0.5587989 0.694265,-0.8635983 l 0.694266,-0.49106574 v -4.8767904 q 0,-0.4063992 0.152399,-0.7619985 0.1524,-0.3725326 0.423333,-0.6434654 0.270933,-0.2709328 0.609599,-0.4233325 0.355599,-0.1523997 0.761998,-0.1523997 0.406399,0 0.761999,0.1523997 0.355599,0.1523997 0.626532,0.4233325 0.270933,0.2709328 0.423332,0.6434654 0.1524,0.3555993 0.1524,0.7619985 v 2.8278611 q 0.01693,-0.016933 0.06773,-0.016933 h 0.135467 q 0.406399,0 0.778932,0.169333 0.372532,0.1523997 0.643465,0.4402658 0.355599,-0.1354664 0.643465,-0.1354664 0.4064,0 0.761999,0.1862663 0.372532,0.169333 0.626532,0.4741324 0.118533,-0.033867 0.237066,-0.067733 0.118533,-0.033867 0.237066,-0.033867 0.372533,0 0.694266,0.1523997 0.321732,0.1523997 0.558799,0.4063992 0.253999,0.2539995 0.389465,0.6095988 0.135467,0.33866604 0.135467,0.74506524 z m -1.168398,-4.31799146 q 0,-0.2539995 -0.203199,-0.37253264 -0.186267,-0.1354664 -0.3556,-0.1354664 -0.152399,0 -0.372532,0.1185331 -0.2032,0.11853314 -0.2032,0.35559934 v 0.3047994 H 36.752589 V -1.2022645 q 0,-0.2370662 -0.220133,-0.3894659 -0.203199,-0.1523997 -0.440266,-0.1523997 -0.220133,0 -0.406399,0.1354664 -0.186266,0.1354664 -0.186266,0.3725326 v 0.82973174 H 34.788326 V -1.6425303 q 0,-0.2031996 -0.237066,-0.3894659 -0.237066,-0.1862663 -0.524932,-0.1862663 -0.2032,0 -0.440266,0.1862663 -0.220133,0.169333 -0.220133,0.3725326 v 1.25306424 H 32.65473 V -6.1806547 q 0,-0.338666 -0.237066,-0.5757322 -0.220133,-0.2539995 -0.558799,-0.2539995 -0.338666,0 -0.575732,0.2539995 Q 31.063,-6.5193207 31.063,-6.1806547 v 7.8231846 h -0.863598 v -1.72719656 l -0.287866,0.2031996 q -0.2032,0.1523997 -0.3556,0.4571991 -0.152399,0.2878661 -0.152399,0.52493226 v 1.9981294 q 0,0.2370662 0.152399,0.5418656 0.1524,0.3047994 0.3556,0.4402658 l 1.320797,0.9651981 q 0.321733,0.2370662 0.524932,0.6603987 0.220133,0.4233325 0.220133,0.8127984 v 0.2709328 q 0,0.0508 0.06773,0.1015998 0.06773,0.067733 0.152399,0.067733 h 4.893724 q 0.08467,0 0.1524,-0.067733 0.06773,-0.0508 0.06773,-0.084666 V 6.5362536 q 0,-0.3725326 0.169333,-0.8127984 0.169333,-0.4402658 0.440266,-0.7281319 l 0.203199,-0.2201329 q 0.186267,-0.1862663 0.3048,-0.5249323 0.135466,-0.338666 0.135466,-0.6095988 z M 35.550325,4.809057 V 5.7911884 H 34.737526 V 4.809057 H 32.586997 V 4.0639918 L 34.65286,1.1683975 h 0.897465 v 2.9125276 h 0.711198 V 4.809057 Z m -0.812799,-2.5907949 -1.269997,1.862663 h 1.269997 z"
           style="font-family:nintendo_NTLG-DB_002;-inkscape-font-specification:'nintendo_NTLG-DB_002, Normal'"
           id="path1731" />
      </g>
    </g>
  </g>
</svg>
